<svg width="89" height="70" viewBox="0 0 89 70" fill="none" xmlns="http://www.w3.org/2000/svg">
<path d="M75.512 59.496H71.576L70.712 60.456H85.4C85.336 60.52 85.272 60.584 85.208 60.648C85.144 60.712 85.048 60.808 84.92 60.936H62.264C61.944 61.256 61.592 61.576 61.208 61.896C60.888 62.216 60.536 62.536 60.152 62.856H67.16L65.912 63.816H78.968L78.2 64.296H72.536C72.472 64.36 72.344 64.424 72.152 64.488C72.024 64.552 71.896 64.648 71.768 64.776H65.336L62.648 66.216H66.392C65.56 66.6 64.728 66.952 63.896 67.272C63.064 67.528 62.2 67.816 61.304 68.136H57.848C55.672 68.776 53.304 69.256 50.744 69.576H51.224C50.2 69.704 49.144 69.8 48.056 69.864C46.968 69.928 45.88 69.96 44.792 69.96C43.576 69.96 42.36 69.928 41.144 69.864C39.992 69.8 38.872 69.704 37.784 69.576H37.4C34.648 69.256 32.184 68.776 30.008 68.136H33.464C32.504 67.816 31.608 67.528 30.776 67.272C29.944 66.952 29.112 66.6 28.28 66.216H24.536C24.088 65.96 23.64 65.736 23.192 65.544C22.744 65.288 22.296 65.032 21.848 64.776H28.376L27.608 64.296H33.272C33.208 64.168 33.112 64.072 32.984 64.008C32.856 63.944 32.728 63.88 32.6 63.816H19.544C19.288 63.688 19.064 63.528 18.872 63.336C18.68 63.144 18.488 62.984 18.296 62.856H11.192C10.872 62.536 10.552 62.216 10.232 61.896C9.848 61.576 9.496 61.256 9.176 60.936H31.832C31.768 60.808 31.704 60.712 31.64 60.648C31.576 60.584 31.512 60.52 31.448 60.456H16.76C16.504 60.2 16.248 59.88 15.992 59.496H19.928C19.864 59.368 19.8 59.272 19.736 59.208C19.672 59.144 19.608 59.08 19.544 59.016H31.544L30.68 57.576H24.728L24.44 57.096H10.904C10.84 56.84 10.744 56.616 10.616 56.424C10.488 56.168 10.36 55.912 10.232 55.656H16.664L16.088 54.216H13.784L13.592 53.736H14.648C14.584 53.48 14.52 53.256 14.456 53.064C14.392 52.808 14.328 52.552 14.264 52.296H13.496C13.496 52.04 13.464 51.816 13.4 51.624C13.4 51.368 13.368 51.112 13.304 50.856H12.536C12.536 50.6 12.504 50.376 12.44 50.184C12.44 49.992 12.44 49.768 12.44 49.512V49.416H12.344C12.344 49.288 12.344 49.192 12.344 49.128C12.408 49.064 12.44 49 12.44 48.936H14.648C14.968 47.912 15.64 47.4 16.664 47.4H34.904C35.928 47.4 36.696 47.528 37.208 47.784C37.72 48.04 38.296 48.424 38.936 48.936H36.728L36.824 49.032C36.952 49.096 37.048 49.16 37.112 49.224C37.24 49.288 37.336 49.352 37.4 49.416H37.496C38.328 50.056 39.352 50.536 40.568 50.856H41.432C42.264 51.112 43.384 51.24 44.792 51.24C45.624 51.24 46.392 51.208 47.096 51.144C47.8 51.08 48.408 50.984 48.92 50.856H48.632C50.104 50.536 51.032 50.056 51.416 49.416H51.224C51.352 49.16 51.416 49 51.416 48.936H52.376L52.472 48.552C52.472 47.976 52.248 47.464 51.8 47.016H51.032C50.456 46.44 49.432 45.96 47.96 45.576H47.672C47.096 45.384 46.424 45.224 45.656 45.096C44.888 44.904 43.992 44.744 42.968 44.616H42.392L38.456 44.04C38.008 43.976 37.56 43.912 37.112 43.848C36.728 43.784 36.312 43.72 35.864 43.656C33.24 43.208 30.712 42.568 28.28 41.736H26.552C25.656 41.416 24.824 41.096 24.056 40.776H22.712C22.392 40.648 22.072 40.52 21.752 40.392C21.432 40.2 21.112 40.008 20.792 39.816H12.44C11.992 39.56 11.576 39.336 11.192 39.144C10.808 38.888 10.424 38.632 10.04 38.376H27.896C27.576 38.12 27.256 37.896 26.936 37.704C26.68 37.448 26.392 37.192 26.072 36.936H6.968C6.776 36.808 6.616 36.648 6.488 36.456C6.296 36.264 6.136 36.104 6.008 35.976H11C10.424 35.336 9.88 34.696 9.368 34.056H10.808L10.232 33.096H1.016C0.952 32.968 0.888 32.872 0.823999 32.808C0.759999 32.744 0.727999 32.68 0.727999 32.616H22.616C22.488 32.36 22.36 32.136 22.232 31.944C22.104 31.688 21.976 31.432 21.848 31.176H5.048L4.472 29.736H18.008L17.816 29.256H13.784L13.592 28.776H15.512C15.512 28.648 15.48 28.552 15.416 28.488C15.416 28.424 15.416 28.36 15.416 28.296H15.032L14.744 27.336H14.168L14.072 26.376H13.88V25.896H10.808C10.744 25.768 10.712 25.608 10.712 25.416C10.712 25.224 10.712 25.064 10.712 24.936H7.928L7.832 23.976H18.776C18.712 23.848 18.68 23.688 18.68 23.496C18.68 23.304 18.68 23.144 18.68 23.016H20.216V22.92C20.216 22.6 20.216 22.28 20.216 21.96C20.216 21.64 20.248 21.352 20.312 21.096H16.184C16.248 20.84 16.28 20.616 16.28 20.424C16.28 20.168 16.312 19.912 16.376 19.656H23.096C23.096 19.528 23.096 19.432 23.096 19.368C23.16 19.304 23.192 19.24 23.192 19.176H16.376C16.504 18.792 16.568 18.472 16.568 18.216H15.512L15.8 17.256H14.168C14.36 16.552 14.584 15.912 14.84 15.336H15.608L15.992 14.376H17.048L17.912 12.936H16.952C17.144 12.68 17.304 12.456 17.432 12.264C17.624 12.008 17.784 11.752 17.912 11.496H17.144L18.296 10.056H20.312C20.376 9.928 20.44 9.832 20.504 9.768C20.568 9.704 20.632 9.64 20.696 9.576H18.008C18.264 9.32 18.52 9.096 18.776 8.904C19.032 8.64799 19.288 8.392 19.544 8.136H21.08C21.464 7.816 21.848 7.49599 22.232 7.17599C22.616 6.792 23.032 6.472 23.48 6.216H25.208C25.592 5.96 25.976 5.736 26.36 5.544C26.744 5.288 27.16 5.032 27.608 4.776H27.32C27.448 4.648 27.608 4.552 27.8 4.488C27.992 4.424 28.152 4.36 28.28 4.296H26.936C27.064 4.168 27.224 4.07199 27.416 4.008C27.608 3.944 27.8 3.88 27.992 3.816H27.032C27.928 3.432 28.856 3.07999 29.816 2.75999C30.84 2.43999 31.864 2.15199 32.888 1.89599H34.328C35.8 1.57599 37.336 1.32 38.936 1.128C40.6 0.935997 42.328 0.839996 44.12 0.839996C47.512 0.839996 50.712 1.192 53.72 1.89599H52.376C54.424 2.344 56.408 2.984 58.328 3.816H59.192C59.384 3.88 59.576 3.944 59.768 4.008C59.96 4.07199 60.152 4.168 60.344 4.296H61.688C61.816 4.36 61.976 4.424 62.168 4.488C62.36 4.552 62.52 4.648 62.648 4.776H62.936C63.384 5.032 63.8 5.288 64.184 5.544C64.632 5.736 65.048 5.96 65.432 6.216H63.8C64.312 6.472 64.76 6.792 65.144 7.17599C65.592 7.49599 66.008 7.816 66.392 8.136H64.952L66.488 9.576H69.176L69.656 10.056H67.64C67.896 10.312 68.12 10.568 68.312 10.824C68.568 11.016 68.792 11.24 68.984 11.496H69.752L70.904 12.936H71.768L72.632 14.376H71.576C71.768 14.696 71.928 15.016 72.056 15.336H71.288C71.48 15.656 71.64 15.976 71.768 16.296C71.896 16.616 72.024 16.936 72.152 17.256H73.784C73.912 17.64 73.976 17.96 73.976 18.216H75.128C75.192 18.344 75.224 18.504 75.224 18.696C75.224 18.888 75.256 19.048 75.32 19.176H82.136V19.656H75.992C76.056 19.912 76.088 20.264 76.088 20.712V21.096H72.536C72.28 22.248 71.64 22.824 70.616 22.824H51.416C50.52 22.824 49.784 22.696 49.208 22.44C48.696 22.184 48.152 21.8 47.576 21.288L47.288 21.096H50.84C50.52 20.84 50.072 20.584 49.496 20.328C48.92 20.008 48.184 19.784 47.288 19.656H43.832C42.488 19.848 41.56 20.328 41.048 21.096H45.176C44.984 21.48 44.888 21.864 44.888 22.248C44.888 22.568 44.92 22.824 44.984 23.016H43.544C43.608 23.336 43.864 23.656 44.312 23.976H33.464C33.848 24.296 34.52 24.616 35.48 24.936H38.264C38.776 25.128 39.384 25.32 40.088 25.512C40.856 25.64 41.656 25.768 42.488 25.896H45.56C46.072 25.96 46.616 26.024 47.192 26.088C47.768 26.152 48.376 26.248 49.016 26.376H49.112C50.2 26.504 51.256 26.664 52.28 26.856C53.304 26.984 54.264 27.144 55.16 27.336H55.736C56.504 27.464 57.208 27.624 57.848 27.816C58.552 27.944 59.224 28.104 59.864 28.296H60.248C60.568 28.36 60.856 28.424 61.112 28.488C61.368 28.552 61.624 28.648 61.88 28.776H60.056C60.312 28.84 60.536 28.904 60.728 28.968C60.984 29.032 61.24 29.128 61.496 29.256H65.528C65.72 29.32 65.912 29.384 66.104 29.448C66.36 29.512 66.584 29.608 66.776 29.736H53.24C54.52 30.248 55.544 30.728 56.312 31.176H73.112C73.496 31.432 73.88 31.688 74.264 31.944C74.648 32.136 75 32.36 75.32 32.616H53.432C53.56 32.68 53.688 32.744 53.816 32.808C53.944 32.872 54.04 32.968 54.104 33.096H63.32C63.512 33.224 63.704 33.384 63.896 33.576C64.088 33.768 64.248 33.928 64.376 34.056H62.936C63.576 34.632 64.12 35.272 64.568 35.976H59.576C59.704 36.104 59.832 36.264 59.96 36.456C60.088 36.648 60.184 36.808 60.248 36.936H79.256L80.12 38.376H62.264C62.392 38.632 62.52 38.888 62.648 39.144C62.776 39.336 62.872 39.56 62.936 39.816H71.192L71.48 40.776H72.824L73.112 41.736H74.84C74.968 41.992 75.032 42.312 75.032 42.696C75.096 43.016 75.16 43.336 75.224 43.656L75.32 44.616H75.896C75.96 44.744 75.992 44.904 75.992 45.096C75.992 45.288 75.992 45.448 75.992 45.576H76.28V47.016H77.144V47.304C77.144 47.56 77.112 47.816 77.048 48.072C77.048 48.328 77.048 48.616 77.048 48.936H76.088V49.416H76.28C76.28 49.672 76.248 49.928 76.184 50.184C76.184 50.376 76.152 50.6 76.088 50.856H76.376L76.088 52.296H76.856C76.792 52.552 76.728 52.808 76.664 53.064C76.6 53.256 76.504 53.48 76.376 53.736H75.32C75.32 53.8 75.288 53.864 75.224 53.928C75.224 53.992 75.224 54.088 75.224 54.216H77.528L76.952 55.656H70.52C70.456 55.912 70.328 56.168 70.136 56.424C70.008 56.616 69.88 56.84 69.752 57.096H83.288L83 57.576H88.856C88.728 57.832 88.568 58.088 88.376 58.344C88.248 58.536 88.088 58.76 87.896 59.016H75.896C75.832 59.08 75.768 59.144 75.704 59.208C75.64 59.272 75.576 59.368 75.512 59.496ZM50.552 19.656H53.432C53.24 19.592 53.016 19.56 52.76 19.56C52.568 19.56 52.344 19.56 52.088 19.56C51.832 19.56 51.576 19.56 51.32 19.56C51.064 19.56 50.808 19.592 50.552 19.656Z" fill="#37B453"/>
</svg>
